<?xml version="1.0" encoding="UTF-8" standalone="no"?>
<!DOCTYPE svg PUBLIC "-//W3C//DTD SVG 1.1//EN"
 "http://www.w3.org/Graphics/SVG/1.1/DTD/svg11.dtd">
<!-- Generated by graphviz version 2.44.0 (20200408.0750)
 -->
<!-- Title: dependency&#45;cruiser output Pages: 1 -->
<svg width="370pt" height="248pt"
 viewBox="0.00 0.00 370.01 248.00" xmlns="http://www.w3.org/2000/svg" xmlns:xlink="http://www.w3.org/1999/xlink">
<g id="graph0" class="graph" transform="scale(1 1) rotate(0) translate(4 244)">
<title>dependency&#45;cruiser output</title>
<polygon fill="white" stroke="transparent" points="-4,4 -4,-244 366.01,-244 366.01,4 -4,4"/>
<g id="clust1" class="cluster">
<title>cluster_refactoring</title>
<path fill="#ffffff" stroke="black" stroke-width="2" d="M20,-8C20,-8 342.01,-8 342.01,-8 348.01,-8 354.01,-14 354.01,-20 354.01,-20 354.01,-220 354.01,-220 354.01,-226 348.01,-232 342.01,-232 342.01,-232 20,-232 20,-232 14,-232 8,-226 8,-220 8,-220 8,-20 8,-20 8,-14 14,-8 20,-8"/>
<text text-anchor="middle" x="181" y="-219.9" font-family="Helvetica,sans-Serif" font-weight="bold" font-size="9.00">refactoring</text>
</g>
<g id="clust2" class="cluster">
<title>cluster_refactoring/exercises</title>
<path fill="#ffffff" stroke="black" stroke-width="2" d="M28,-16C28,-16 334.01,-16 334.01,-16 340.01,-16 346.01,-22 346.01,-28 346.01,-28 346.01,-193 346.01,-193 346.01,-199 340.01,-205 334.01,-205 334.01,-205 28,-205 28,-205 22,-205 16,-199 16,-193 16,-193 16,-28 16,-28 16,-22 22,-16 28,-16"/>
<text text-anchor="middle" x="181" y="-192.9" font-family="Helvetica,sans-Serif" font-weight="bold" font-size="9.00">exercises</text>
</g>
<g id="clust3" class="cluster">
<title>cluster_refactoring/exercises/data</title>
<path fill="#ffffff" stroke="black" stroke-width="2" d="M36,-24C36,-24 326.01,-24 326.01,-24 332.01,-24 338.01,-30 338.01,-36 338.01,-36 338.01,-166 338.01,-166 338.01,-172 332.01,-178 326.01,-178 326.01,-178 36,-178 36,-178 30,-178 24,-172 24,-166 24,-166 24,-36 24,-36 24,-30 30,-24 36,-24"/>
<text text-anchor="middle" x="181" y="-165.9" font-family="Helvetica,sans-Serif" font-weight="bold" font-size="9.00">data</text>
</g>
<g id="clust4" class="cluster">
<title>cluster_refactoring/exercises/data/list&#45;items</title>
<path fill="#ffffff" stroke="black" stroke-width="2" d="M44,-32C44,-32 318.01,-32 318.01,-32 324.01,-32 330.01,-38 330.01,-44 330.01,-44 330.01,-139 330.01,-139 330.01,-145 324.01,-151 318.01,-151 318.01,-151 44,-151 44,-151 38,-151 32,-145 32,-139 32,-139 32,-44 32,-44 32,-38 38,-32 44,-32"/>
<text text-anchor="middle" x="181" y="-138.9" font-family="Helvetica,sans-Serif" font-weight="bold" font-size="9.00">list&#45;items</text>
</g>
<g id="clust5" class="cluster">
<title>cluster_refactoring/exercises/data/list&#45;items/src</title>
<path fill="#ffffff" stroke="black" stroke-width="2" d="M52,-40C52,-40 310.01,-40 310.01,-40 316.01,-40 322.01,-46 322.01,-52 322.01,-52 322.01,-112 322.01,-112 322.01,-118 316.01,-124 310.01,-124 310.01,-124 52,-124 52,-124 46,-124 40,-118 40,-112 40,-112 40,-52 40,-52 40,-46 46,-40 52,-40"/>
<text text-anchor="middle" x="181" y="-111.9" font-family="Helvetica,sans-Serif" font-weight="bold" font-size="9.00">src</text>
</g>
<!-- refactoring/exercises/data/list&#45;items/src/data.js -->
<g id="node1" class="node">
<title>refactoring/exercises/data/list&#45;items/src/data.js</title>
<g id="a_node1"><a xlink:href="refactoring/exercises/data/list-items/src/data.js" xlink:title="data.js">
<path fill="#ffffcc" stroke="black" d="M307.81,-66.3C307.81,-66.3 266.21,-66.3 266.21,-66.3 263.11,-66.3 260.01,-63.2 260.01,-60.1 260.01,-60.1 260.01,-53.9 260.01,-53.9 260.01,-50.8 263.11,-47.7 266.21,-47.7 266.21,-47.7 307.81,-47.7 307.81,-47.7 310.91,-47.7 314.01,-50.8 314.01,-53.9 314.01,-53.9 314.01,-60.1 314.01,-60.1 314.01,-63.2 310.91,-66.3 307.81,-66.3"/>
<text text-anchor="middle" x="287.01" y="-54.3" font-family="Helvetica,sans-Serif" font-size="9.00">data.js</text>
</a>
</g>
</g>
<!-- refactoring/exercises/data/list&#45;items/src/handler.js -->
<g id="node2" class="node">
<title>refactoring/exercises/data/list&#45;items/src/handler.js</title>
<g id="a_node2"><a xlink:href="refactoring/exercises/data/list-items/src/handler.js" xlink:title="handler.js">
<path fill="#ffffcc" stroke="black" d="M235.81,-66.3C235.81,-66.3 193.2,-66.3 193.2,-66.3 190.1,-66.3 187,-63.2 187,-60.1 187,-60.1 187,-53.9 187,-53.9 187,-50.8 190.1,-47.7 193.2,-47.7 193.2,-47.7 235.81,-47.7 235.81,-47.7 238.91,-47.7 242.01,-50.8 242.01,-53.9 242.01,-53.9 242.01,-60.1 242.01,-60.1 242.01,-63.2 238.91,-66.3 235.81,-66.3"/>
<text text-anchor="middle" x="214.5" y="-54.3" font-family="Helvetica,sans-Serif" font-size="9.00">handler.js</text>
</a>
</g>
</g>
<!-- refactoring/exercises/data/list&#45;items/src/handler.js&#45;&gt;refactoring/exercises/data/list&#45;items/src/data.js -->
<g id="edge1" class="edge">
<title>refactoring/exercises/data/list&#45;items/src/handler.js&#45;&gt;refactoring/exercises/data/list&#45;items/src/data.js</title>
<path fill="none" stroke="#000000" stroke-width="2" stroke-opacity="0.200000" d="M242.16,-57C245.94,-57 249.87,-57 253.75,-57"/>
<polygon fill="#000000" fill-opacity="0.200000" stroke="#000000" stroke-width="2" stroke-opacity="0.200000" points="253.78,-59.1 259.78,-57 253.78,-54.9 253.78,-59.1"/>
</g>
<!-- refactoring/exercises/data/list&#45;items/src/logic.js -->
<g id="node3" class="node">
<title>refactoring/exercises/data/list&#45;items/src/logic.js</title>
<g id="a_node3"><a xlink:href="refactoring/exercises/data/list-items/src/logic.js" xlink:title="logic.js">
<path fill="#ffffcc" stroke="black" d="M307.81,-97.3C307.81,-97.3 266.21,-97.3 266.21,-97.3 263.11,-97.3 260.01,-94.2 260.01,-91.1 260.01,-91.1 260.01,-84.9 260.01,-84.9 260.01,-81.8 263.11,-78.7 266.21,-78.7 266.21,-78.7 307.81,-78.7 307.81,-78.7 310.91,-78.7 314.01,-81.8 314.01,-84.9 314.01,-84.9 314.01,-91.1 314.01,-91.1 314.01,-94.2 310.91,-97.3 307.81,-97.3"/>
<text text-anchor="middle" x="287.01" y="-85.3" font-family="Helvetica,sans-Serif" font-size="9.00">logic.js</text>
</a>
</g>
</g>
<!-- refactoring/exercises/data/list&#45;items/src/handler.js&#45;&gt;refactoring/exercises/data/list&#45;items/src/logic.js -->
<g id="edge2" class="edge">
<title>refactoring/exercises/data/list&#45;items/src/handler.js&#45;&gt;refactoring/exercises/data/list&#45;items/src/logic.js</title>
<path fill="none" stroke="#000000" stroke-width="2" stroke-opacity="0.200000" d="M237.04,-66.47C243.87,-69.47 251.52,-72.84 258.7,-76"/>
<polygon fill="#000000" fill-opacity="0.200000" stroke="#000000" stroke-width="2" stroke-opacity="0.200000" points="258.26,-78.1 264.6,-78.59 259.95,-74.25 258.26,-78.1"/>
</g>
<!-- refactoring/exercises/data/list&#45;items/src/init.js -->
<g id="node4" class="node">
<title>refactoring/exercises/data/list&#45;items/src/init.js</title>
<g id="a_node4"><a xlink:href="refactoring/exercises/data/list-items/src/init.js" xlink:title="init.js">
<path fill="#ffffcc" stroke="black" d="M95.8,-66.3C95.8,-66.3 54.2,-66.3 54.2,-66.3 51.1,-66.3 48,-63.2 48,-60.1 48,-60.1 48,-53.9 48,-53.9 48,-50.8 51.1,-47.7 54.2,-47.7 54.2,-47.7 95.8,-47.7 95.8,-47.7 98.9,-47.7 102,-50.8 102,-53.9 102,-53.9 102,-60.1 102,-60.1 102,-63.2 98.9,-66.3 95.8,-66.3"/>
<text text-anchor="middle" x="75" y="-54.3" font-family="Helvetica,sans-Serif" font-size="9.00">init.js</text>
</a>
</g>
</g>
<!-- refactoring/exercises/data/list&#45;items/src/listener.js -->
<g id="node5" class="node">
<title>refactoring/exercises/data/list&#45;items/src/listener.js</title>
<g id="a_node5"><a xlink:href="refactoring/exercises/data/list-items/src/listener.js" xlink:title="listener.js">
<path fill="#ffffcc" stroke="black" d="M162.8,-66.3C162.8,-66.3 121.2,-66.3 121.2,-66.3 118.1,-66.3 115,-63.2 115,-60.1 115,-60.1 115,-53.9 115,-53.9 115,-50.8 118.1,-47.7 121.2,-47.7 121.2,-47.7 162.8,-47.7 162.8,-47.7 165.9,-47.7 169,-50.8 169,-53.9 169,-53.9 169,-60.1 169,-60.1 169,-63.2 165.9,-66.3 162.8,-66.3"/>
<text text-anchor="middle" x="142" y="-54.3" font-family="Helvetica,sans-Serif" font-size="9.00">listener.js</text>
</a>
</g>
</g>
<!-- refactoring/exercises/data/list&#45;items/src/init.js&#45;&gt;refactoring/exercises/data/list&#45;items/src/listener.js -->
<g id="edge3" class="edge">
<title>refactoring/exercises/data/list&#45;items/src/init.js&#45;&gt;refactoring/exercises/data/list&#45;items/src/listener.js</title>
<path fill="none" stroke="#000000" stroke-width="2" stroke-opacity="0.200000" d="M102.06,-57C104.32,-57 106.61,-57 108.9,-57"/>
<polygon fill="#000000" fill-opacity="0.200000" stroke="#000000" stroke-width="2" stroke-opacity="0.200000" points="108.93,-59.1 114.93,-57 108.93,-54.9 108.93,-59.1"/>
</g>
<!-- refactoring/exercises/data/list&#45;items/src/listener.js&#45;&gt;refactoring/exercises/data/list&#45;items/src/handler.js -->
<g id="edge4" class="edge">
<title>refactoring/exercises/data/list&#45;items/src/listener.js&#45;&gt;refactoring/exercises/data/list&#45;items/src/handler.js</title>
<path fill="none" stroke="#000000" stroke-width="2" stroke-opacity="0.200000" d="M169.25,-57C173.06,-57 177.01,-57 180.92,-57"/>
<polygon fill="#000000" fill-opacity="0.200000" stroke="#000000" stroke-width="2" stroke-opacity="0.200000" points="180.99,-59.1 186.99,-57 180.99,-54.9 180.99,-59.1"/>
</g>
<!-- refactoring/exercises/data/list&#45;items/src/logic.spec.js -->
<g id="node6" class="node">
<title>refactoring/exercises/data/list&#45;items/src/logic.spec.js</title>
<g id="a_node6"><a xlink:href="refactoring/exercises/data/list-items/src/logic.spec.js" xlink:title="logic.spec.js">
<path fill="#ffffcc" stroke="black" d="M240.81,-97.3C240.81,-97.3 188.2,-97.3 188.2,-97.3 185.1,-97.3 182,-94.2 182,-91.1 182,-91.1 182,-84.9 182,-84.9 182,-81.8 185.1,-78.7 188.2,-78.7 188.2,-78.7 240.81,-78.7 240.81,-78.7 243.91,-78.7 247.01,-81.8 247.01,-84.9 247.01,-84.9 247.01,-91.1 247.01,-91.1 247.01,-94.2 243.91,-97.3 240.81,-97.3"/>
<text text-anchor="middle" x="214.5" y="-85.3" font-family="Helvetica,sans-Serif" font-size="9.00">logic.spec.js</text>
</a>
</g>
</g>
<!-- refactoring/exercises/data/list&#45;items/src/logic.spec.js&#45;&gt;refactoring/exercises/data/list&#45;items/src/logic.js -->
<g id="edge5" class="edge">
<title>refactoring/exercises/data/list&#45;items/src/logic.spec.js&#45;&gt;refactoring/exercises/data/list&#45;items/src/logic.js</title>
<path fill="none" stroke="#000000" stroke-width="2" stroke-opacity="0.200000" d="M247.04,-88C249.17,-88 251.31,-88 253.45,-88"/>
<polygon fill="#000000" fill-opacity="0.200000" stroke="#000000" stroke-width="2" stroke-opacity="0.200000" points="253.77,-90.1 259.77,-88 253.77,-85.9 253.77,-90.1"/>
</g>
</g>
</svg>
